<svg xmlns="http://www.w3.org/2000/svg" xmlns:xlink="http://www.w3.org/1999/xlink" width="500" zoomAndPan="magnify" viewBox="0 0 375 374.999991" height="500" preserveAspectRatio="xMidYMid meet" version="1.0"><defs><g/><clipPath id="df9472ac48"><path d="M 209.574219 136.539062 L 215.949219 136.539062 L 215.949219 144.570312 L 209.574219 144.570312 Z M 209.574219 136.539062 " clip-rule="nonzero"/></clipPath><clipPath id="b493a064f9"><path d="M 158.949219 116.058594 L 208.082031 116.058594 L 208.082031 155.792969 L 158.949219 155.792969 Z M 158.949219 116.058594 " clip-rule="nonzero"/></clipPath></defs><path fill="#f7f7f0" d="M 185.992188 137.527344 C 186.238281 137.382812 186.324219 137.070312 186.183594 136.820312 C 186.039062 136.574219 185.722656 136.488281 185.476562 136.632812 L 180.335938 139.601562 C 180.058594 139.761719 179.886719 140.0625 179.886719 140.378906 L 179.886719 140.714844 C 179.886719 141.035156 180.058594 141.332031 180.335938 141.492188 L 185.476562 144.480469 C 185.558594 144.527344 185.648438 144.550781 185.734375 144.550781 C 185.914062 144.550781 186.085938 144.457031 186.179688 144.292969 C 186.324219 144.042969 186.238281 143.730469 185.992188 143.585938 L 180.917969 140.636719 L 180.917969 140.460938 L 185.992188 137.527344 " fill-opacity="1" fill-rule="nonzero"/><path fill="#f7f7f0" d="M 188.261719 145.261719 C 188.328125 145.292969 188.398438 145.304688 188.464844 145.304688 C 188.664062 145.304688 188.855469 145.191406 188.9375 144.996094 L 194.128906 133.070312 C 194.242188 132.808594 194.125 132.503906 193.863281 132.390625 C 193.601562 132.277344 193.296875 132.398438 193.183594 132.660156 L 187.992188 144.582031 C 187.878906 144.84375 188 145.148438 188.261719 145.261719 " fill-opacity="1" fill-rule="nonzero"/><path fill="#f7f7f0" d="M 196.320312 142.777344 C 196.726562 142.777344 197.164062 143.046875 197.164062 143.636719 C 197.164062 144.171875 196.75 144.410156 196.339844 144.410156 C 195.789062 144.410156 195.40625 144.0625 195.40625 143.566406 C 195.40625 143.398438 195.5625 142.777344 196.320312 142.777344 Z M 196.339844 145.441406 C 197.398438 145.441406 198.195312 144.667969 198.195312 143.636719 C 198.195312 142.558594 197.390625 141.742188 196.320312 141.742188 C 194.980469 141.742188 194.375 142.808594 194.375 143.566406 C 194.375 144.636719 195.21875 145.441406 196.339844 145.441406 " fill-opacity="1" fill-rule="nonzero"/><path fill="#f7f7f0" d="M 201.261719 142.777344 C 201.667969 142.777344 202.105469 143.046875 202.105469 143.636719 C 202.105469 144.171875 201.691406 144.410156 201.28125 144.410156 C 200.734375 144.410156 200.347656 144.0625 200.347656 143.566406 C 200.347656 143.398438 200.503906 142.777344 201.261719 142.777344 Z M 201.28125 145.441406 C 202.339844 145.441406 203.136719 144.667969 203.136719 143.636719 C 203.136719 142.558594 202.332031 141.742188 201.261719 141.742188 C 199.921875 141.742188 199.316406 142.808594 199.316406 143.566406 C 199.316406 144.636719 200.160156 145.441406 201.28125 145.441406 " fill-opacity="1" fill-rule="nonzero"/><g clip-path="url(#df9472ac48)"><path fill="#f7f7f0" d="M 209.84375 143.585938 C 209.597656 143.726562 209.511719 144.042969 209.65625 144.289062 C 209.75 144.457031 209.925781 144.550781 210.101562 144.550781 C 210.191406 144.550781 210.277344 144.527344 210.359375 144.480469 L 215.5 141.507812 C 215.777344 141.351562 215.949219 141.050781 215.949219 140.730469 L 215.949219 140.398438 C 215.949219 140.078125 215.777344 139.78125 215.503906 139.621094 L 210.359375 136.632812 C 210.113281 136.488281 209.800781 136.574219 209.65625 136.820312 C 209.511719 137.066406 209.597656 137.382812 209.84375 137.527344 L 214.917969 140.476562 L 214.917969 140.652344 L 209.84375 143.585938 " fill-opacity="1" fill-rule="nonzero"/></g><path fill="#f7f7f0" d="M 165.917969 121.589844 L 180.261719 121.589844 C 180.546875 121.589844 180.777344 121.355469 180.777344 121.070312 C 180.777344 120.785156 180.546875 120.554688 180.261719 120.554688 L 165.917969 120.554688 C 165.632812 120.554688 165.402344 120.785156 165.402344 121.070312 C 165.402344 121.355469 165.632812 121.589844 165.917969 121.589844 " fill-opacity="1" fill-rule="nonzero"/><path fill="#f7f7f0" d="M 166.640625 126.421875 C 166.640625 126.707031 166.871094 126.9375 167.15625 126.9375 L 185.347656 126.9375 C 185.632812 126.9375 185.863281 126.707031 185.863281 126.421875 C 185.863281 126.136719 185.632812 125.902344 185.347656 125.902344 L 167.15625 125.902344 C 166.871094 125.902344 166.640625 126.136719 166.640625 126.421875 " fill-opacity="1" fill-rule="nonzero"/><path fill="#f7f7f0" d="M 168.289062 131.769531 C 168.289062 132.054688 168.523438 132.289062 168.808594 132.289062 L 189.648438 132.289062 C 189.933594 132.289062 190.167969 132.054688 190.167969 131.769531 C 190.167969 131.484375 189.933594 131.253906 189.648438 131.253906 L 168.808594 131.253906 C 168.523438 131.253906 168.289062 131.484375 168.289062 131.769531 " fill-opacity="1" fill-rule="nonzero"/><path fill="#f7f7f0" d="M 180.898438 137.121094 C 180.898438 136.835938 180.667969 136.601562 180.382812 136.601562 L 167.15625 136.601562 C 166.871094 136.601562 166.640625 136.835938 166.640625 137.121094 C 166.640625 137.40625 166.871094 137.636719 167.15625 137.636719 L 180.382812 137.636719 C 180.667969 137.636719 180.898438 137.40625 180.898438 137.121094 " fill-opacity="1" fill-rule="nonzero"/><path fill="#f7f7f0" d="M 165.917969 142.9375 L 177.269531 142.9375 C 177.554688 142.9375 177.785156 142.707031 177.785156 142.421875 C 177.785156 142.136719 177.554688 141.902344 177.269531 141.902344 L 165.917969 141.902344 C 165.632812 141.902344 165.402344 142.136719 165.402344 142.421875 C 165.402344 142.707031 165.632812 142.9375 165.917969 142.9375 " fill-opacity="1" fill-rule="nonzero"/><g clip-path="url(#b493a064f9)"><path fill="#f7f7f0" d="M 159.980469 118.785156 C 159.980469 117.851562 160.738281 117.089844 161.671875 117.089844 L 203.421875 117.089844 C 204.355469 117.089844 205.117188 117.851562 205.117188 118.785156 L 205.117188 142.042969 C 204.679688 142.320312 204.417969 142.75 204.3125 143.160156 C 204.3125 143.164062 204.3125 143.167969 204.308594 143.171875 C 204.292969 143.238281 204.28125 143.300781 204.273438 143.363281 C 204.273438 143.371094 204.273438 143.378906 204.269531 143.386719 C 204.269531 143.410156 204.265625 143.433594 204.265625 143.453125 C 204.265625 143.464844 204.261719 143.472656 204.261719 143.480469 C 204.261719 143.507812 204.261719 143.539062 204.261719 143.566406 C 204.261719 143.605469 204.261719 143.640625 204.261719 143.675781 C 204.265625 143.6875 204.265625 143.703125 204.265625 143.714844 C 204.269531 143.738281 204.269531 143.761719 204.273438 143.785156 C 204.273438 143.800781 204.277344 143.8125 204.277344 143.828125 C 204.28125 143.847656 204.285156 143.871094 204.289062 143.890625 C 204.289062 143.90625 204.292969 143.921875 204.296875 143.9375 C 204.300781 143.957031 204.304688 143.976562 204.308594 143.996094 C 204.3125 144.011719 204.316406 144.027344 204.320312 144.042969 C 204.324219 144.058594 204.328125 144.074219 204.332031 144.089844 C 204.34375 144.132812 204.355469 144.171875 204.371094 144.214844 C 204.375 144.21875 204.375 144.222656 204.375 144.226562 C 204.386719 144.25 204.394531 144.277344 204.40625 144.300781 C 204.40625 144.304688 204.410156 144.3125 204.410156 144.316406 C 204.421875 144.34375 204.433594 144.367188 204.445312 144.394531 C 204.449219 144.394531 204.449219 144.394531 204.449219 144.398438 C 204.589844 144.683594 204.800781 144.925781 205.070312 145.105469 C 204.890625 145.851562 204.21875 146.402344 203.421875 146.402344 L 161.671875 146.402344 C 160.738281 146.402344 159.980469 145.640625 159.980469 144.707031 Z M 207.050781 143.636719 C 207.050781 144.171875 206.632812 144.410156 206.222656 144.410156 C 206.054688 144.410156 205.898438 144.375 205.769531 144.316406 C 205.765625 144.316406 205.765625 144.3125 205.765625 144.3125 C 205.5 144.191406 205.328125 143.960938 205.296875 143.667969 C 205.296875 143.660156 205.296875 143.65625 205.296875 143.652344 C 205.292969 143.625 205.292969 143.597656 205.292969 143.566406 C 205.292969 143.558594 205.292969 143.550781 205.292969 143.542969 C 205.300781 143.410156 205.382812 143.109375 205.65625 142.925781 C 205.65625 142.925781 205.65625 142.925781 205.660156 142.925781 C 205.695312 142.898438 205.738281 142.878906 205.785156 142.855469 C 205.789062 142.855469 205.789062 142.855469 205.792969 142.851562 C 205.90625 142.804688 206.042969 142.777344 206.207031 142.777344 C 206.613281 142.777344 207.050781 143.046875 207.050781 143.636719 Z M 185.109375 151.058594 L 179.988281 151.058594 L 179.988281 147.433594 L 185.109375 147.433594 Z M 193.847656 152.785156 L 193.847656 154.070312 C 193.847656 154.453125 193.539062 154.761719 193.160156 154.761719 L 171.9375 154.761719 C 171.558594 154.761719 171.25 154.453125 171.25 154.070312 L 171.25 152.785156 C 171.25 152.402344 171.558594 152.09375 171.9375 152.09375 L 193.160156 152.09375 C 193.539062 152.09375 193.847656 152.402344 193.847656 152.785156 Z M 161.671875 147.433594 L 178.957031 147.433594 L 178.957031 151.058594 L 171.9375 151.058594 C 170.988281 151.058594 170.214844 151.832031 170.214844 152.785156 L 170.214844 154.070312 C 170.214844 155.019531 170.988281 155.792969 171.9375 155.792969 L 193.160156 155.792969 C 194.109375 155.792969 194.878906 155.019531 194.878906 154.070312 L 194.878906 152.785156 C 194.878906 151.832031 194.109375 151.058594 193.160156 151.058594 L 186.140625 151.058594 L 186.140625 147.433594 L 203.421875 147.433594 C 204.671875 147.433594 205.730469 146.59375 206.046875 145.4375 C 206.105469 145.441406 206.164062 145.441406 206.222656 145.441406 C 207.28125 145.441406 208.082031 144.667969 208.082031 143.636719 C 208.082031 142.558594 207.273438 141.742188 206.207031 141.742188 C 206.1875 141.742188 206.167969 141.742188 206.148438 141.746094 L 206.148438 118.785156 C 206.148438 117.28125 204.925781 116.058594 203.421875 116.058594 L 161.671875 116.058594 C 160.171875 116.058594 158.949219 117.28125 158.949219 118.785156 L 158.949219 144.707031 C 158.949219 146.210938 160.171875 147.433594 161.671875 147.433594 " fill-opacity="1" fill-rule="nonzero"/></g><g fill="#f8d8e8" fill-opacity="1"><g transform="translate(143.871093, 195.584284)"><g><path d="M 18.375 -18.203125 L 18.375 0 L 15.78125 0 L 15.78125 -8.109375 L 5.328125 -8.109375 L 5.328125 0 L 2.734375 0 L 2.734375 -18.203125 L 5.328125 -18.203125 L 5.328125 -10.375 L 15.78125 -10.375 L 15.78125 -18.203125 Z M 18.375 -18.203125 "/></g></g></g><g fill="#f8d8e8" fill-opacity="1"><g transform="translate(164.976766, 195.584284)"><g><path d="M 14.328125 -4.546875 L 4.65625 -4.546875 L 2.65625 0 L -0.03125 0 L 8.21875 -18.203125 L 10.796875 -18.203125 L 19.0625 0 L 16.328125 0 Z M 13.421875 -6.625 L 9.484375 -15.546875 L 5.5625 -6.625 Z M 13.421875 -6.625 "/></g></g></g><g fill="#f8d8e8" fill-opacity="1"><g transform="translate(184.003071, 195.584284)"><g><path d="M 18.375 -18.203125 L 18.375 0 L 16.25 0 L 5.328125 -13.578125 L 5.328125 0 L 2.734375 0 L 2.734375 -18.203125 L 4.859375 -18.203125 L 15.78125 -4.625 L 15.78125 -18.203125 Z M 18.375 -18.203125 "/></g></g></g><g fill="#f8d8e8" fill-opacity="1"><g transform="translate(205.108745, 195.584284)"><g><path d="M 14.328125 -4.546875 L 4.65625 -4.546875 L 2.65625 0 L -0.03125 0 L 8.21875 -18.203125 L 10.796875 -18.203125 L 19.0625 0 L 16.328125 0 Z M 13.421875 -6.625 L 9.484375 -15.546875 L 5.5625 -6.625 Z M 13.421875 -6.625 "/></g></g></g><g fill="#f8d8e8" fill-opacity="1"><g transform="translate(224.132802, 195.584284)"><g/></g></g><g fill="#f8d8e8" fill-opacity="1"><g transform="translate(56.718751, 231.584282)"><g><path d="M 8.65625 -8.09375 L 5.328125 -4.703125 L 5.328125 0 L 2.734375 0 L 2.734375 -18.203125 L 5.328125 -18.203125 L 5.328125 -8.03125 L 15.203125 -18.203125 L 18.171875 -18.203125 L 10.40625 -10.015625 L 18.671875 0 L 15.625 0 Z M 8.65625 -8.09375 "/></g></g></g><g fill="#f8d8e8" fill-opacity="1"><g transform="translate(75.407157, 231.584282)"><g><path d="M 2.734375 -18.203125 L 5.328125 -18.203125 L 5.328125 -2.265625 L 15.1875 -2.265625 L 15.1875 0 L 2.734375 0 Z M 2.734375 -18.203125 "/></g></g></g><g fill="#f8d8e8" fill-opacity="1"><g transform="translate(90.84653, 231.584282)"><g><path d="M 10.265625 0.203125 C 7.835938 0.203125 5.945312 -0.488281 4.59375 -1.875 C 3.25 -3.257812 2.578125 -5.253906 2.578125 -7.859375 L 2.578125 -18.203125 L 5.171875 -18.203125 L 5.171875 -7.953125 C 5.171875 -4.054688 6.878906 -2.109375 10.296875 -2.109375 C 11.960938 -2.109375 13.234375 -2.585938 14.109375 -3.546875 C 14.992188 -4.503906 15.4375 -5.972656 15.4375 -7.953125 L 15.4375 -18.203125 L 17.96875 -18.203125 L 17.96875 -7.859375 C 17.96875 -5.234375 17.289062 -3.234375 15.9375 -1.859375 C 14.582031 -0.484375 12.691406 0.203125 10.265625 0.203125 Z M 10.265625 0.203125 "/></g></g></g><g fill="#f8d8e8" fill-opacity="1"><g transform="translate(111.406365, 231.584282)"><g><path d="M 10.875 0.203125 C 9.050781 0.203125 7.40625 -0.195312 5.9375 -1 C 4.476562 -1.800781 3.332031 -2.910156 2.5 -4.328125 C 1.664062 -5.742188 1.25 -7.332031 1.25 -9.09375 C 1.25 -10.863281 1.664062 -12.453125 2.5 -13.859375 C 3.332031 -15.273438 4.484375 -16.382812 5.953125 -17.1875 C 7.421875 -18 9.066406 -18.40625 10.890625 -18.40625 C 12.316406 -18.40625 13.617188 -18.164062 14.796875 -17.6875 C 15.972656 -17.21875 16.976562 -16.515625 17.8125 -15.578125 L 16.125 -13.9375 C 14.75 -15.375 13.039062 -16.09375 11 -16.09375 C 9.644531 -16.09375 8.421875 -15.789062 7.328125 -15.1875 C 6.234375 -14.582031 5.378906 -13.742188 4.765625 -12.671875 C 4.148438 -11.609375 3.84375 -10.414062 3.84375 -9.09375 C 3.84375 -7.78125 4.148438 -6.585938 4.765625 -5.515625 C 5.378906 -4.453125 6.234375 -3.617188 7.328125 -3.015625 C 8.421875 -2.410156 9.644531 -2.109375 11 -2.109375 C 13.03125 -2.109375 14.738281 -2.835938 16.125 -4.296875 L 17.8125 -2.65625 C 16.976562 -1.71875 15.96875 -1.003906 14.78125 -0.515625 C 13.59375 -0.0351562 12.289062 0.203125 10.875 0.203125 Z M 10.875 0.203125 "/></g></g></g><g fill="#f8d8e8" fill-opacity="1"><g transform="translate(130.19873, 231.584282)"><g><path d="M 18.375 -18.203125 L 18.375 0 L 15.78125 0 L 15.78125 -8.109375 L 5.328125 -8.109375 L 5.328125 0 L 2.734375 0 L 2.734375 -18.203125 L 5.328125 -18.203125 L 5.328125 -10.375 L 15.78125 -10.375 L 15.78125 -18.203125 Z M 18.375 -18.203125 "/></g></g></g><g fill="#f8d8e8" fill-opacity="1"><g transform="translate(151.304404, 231.584282)"><g/></g></g><g fill="#f8d8e8" fill-opacity="1"><g transform="translate(158.296308, 231.584282)"><g><path d="M 2.734375 -18.203125 L 10.40625 -18.203125 C 12.320312 -18.203125 14.023438 -17.816406 15.515625 -17.046875 C 17.015625 -16.285156 18.175781 -15.21875 19 -13.84375 C 19.820312 -12.46875 20.234375 -10.882812 20.234375 -9.09375 C 20.234375 -7.3125 19.820312 -5.726562 19 -4.34375 C 18.175781 -2.96875 17.015625 -1.898438 15.515625 -1.140625 C 14.023438 -0.378906 12.320312 0 10.40625 0 L 2.734375 0 Z M 10.25 -2.265625 C 11.71875 -2.265625 13.007812 -2.550781 14.125 -3.125 C 15.25 -3.695312 16.113281 -4.5 16.71875 -5.53125 C 17.320312 -6.5625 17.625 -7.75 17.625 -9.09375 C 17.625 -10.445312 17.320312 -11.640625 16.71875 -12.671875 C 16.113281 -13.703125 15.25 -14.503906 14.125 -15.078125 C 13.007812 -15.648438 11.71875 -15.9375 10.25 -15.9375 L 5.328125 -15.9375 L 5.328125 -2.265625 Z M 10.25 -2.265625 "/></g></g></g><g fill="#f8d8e8" fill-opacity="1"><g transform="translate(179.765881, 231.584282)"><g><path d="M 10.265625 0.203125 C 7.835938 0.203125 5.945312 -0.488281 4.59375 -1.875 C 3.25 -3.257812 2.578125 -5.253906 2.578125 -7.859375 L 2.578125 -18.203125 L 5.171875 -18.203125 L 5.171875 -7.953125 C 5.171875 -4.054688 6.878906 -2.109375 10.296875 -2.109375 C 11.960938 -2.109375 13.234375 -2.585938 14.109375 -3.546875 C 14.992188 -4.503906 15.4375 -5.972656 15.4375 -7.953125 L 15.4375 -18.203125 L 17.96875 -18.203125 L 17.96875 -7.859375 C 17.96875 -5.234375 17.289062 -3.234375 15.9375 -1.859375 C 14.582031 -0.484375 12.691406 0.203125 10.265625 0.203125 Z M 10.265625 0.203125 "/></g></g></g><g fill="#f8d8e8" fill-opacity="1"><g transform="translate(200.325717, 231.584282)"><g><path d="M 10.875 0.203125 C 9.050781 0.203125 7.40625 -0.195312 5.9375 -1 C 4.476562 -1.800781 3.332031 -2.910156 2.5 -4.328125 C 1.664062 -5.742188 1.25 -7.332031 1.25 -9.09375 C 1.25 -10.863281 1.664062 -12.453125 2.5 -13.859375 C 3.332031 -15.273438 4.484375 -16.382812 5.953125 -17.1875 C 7.421875 -18 9.066406 -18.40625 10.890625 -18.40625 C 12.316406 -18.40625 13.617188 -18.164062 14.796875 -17.6875 C 15.972656 -17.21875 16.976562 -16.515625 17.8125 -15.578125 L 16.125 -13.9375 C 14.75 -15.375 13.039062 -16.09375 11 -16.09375 C 9.644531 -16.09375 8.421875 -15.789062 7.328125 -15.1875 C 6.234375 -14.582031 5.378906 -13.742188 4.765625 -12.671875 C 4.148438 -11.609375 3.84375 -10.414062 3.84375 -9.09375 C 3.84375 -7.78125 4.148438 -6.585938 4.765625 -5.515625 C 5.378906 -4.453125 6.234375 -3.617188 7.328125 -3.015625 C 8.421875 -2.410156 9.644531 -2.109375 11 -2.109375 C 13.03125 -2.109375 14.738281 -2.835938 16.125 -4.296875 L 17.8125 -2.65625 C 16.976562 -1.71875 15.96875 -1.003906 14.78125 -0.515625 C 13.59375 -0.0351562 12.289062 0.203125 10.875 0.203125 Z M 10.875 0.203125 "/></g></g></g><g fill="#f8d8e8" fill-opacity="1"><g transform="translate(219.118082, 231.584282)"><g><path d="M 18.375 -18.203125 L 18.375 0 L 15.78125 0 L 15.78125 -8.109375 L 5.328125 -8.109375 L 5.328125 0 L 2.734375 0 L 2.734375 -18.203125 L 5.328125 -18.203125 L 5.328125 -10.375 L 15.78125 -10.375 L 15.78125 -18.203125 Z M 18.375 -18.203125 "/></g></g></g><g fill="#f8d8e8" fill-opacity="1"><g transform="translate(240.223755, 231.584282)"><g><path d="M 8.65625 -8.09375 L 5.328125 -4.703125 L 5.328125 0 L 2.734375 0 L 2.734375 -18.203125 L 5.328125 -18.203125 L 5.328125 -8.03125 L 15.203125 -18.203125 L 18.171875 -18.203125 L 10.40625 -10.015625 L 18.671875 0 L 15.625 0 Z M 8.65625 -8.09375 "/></g></g></g><g fill="#f8d8e8" fill-opacity="1"><g transform="translate(258.912173, 231.584282)"><g><path d="M 10.953125 0.203125 C 9.109375 0.203125 7.445312 -0.195312 5.96875 -1 C 4.5 -1.800781 3.34375 -2.910156 2.5 -4.328125 C 1.664062 -5.753906 1.25 -7.34375 1.25 -9.09375 C 1.25 -10.84375 1.664062 -12.425781 2.5 -13.84375 C 3.34375 -15.269531 4.5 -16.382812 5.96875 -17.1875 C 7.445312 -18 9.109375 -18.40625 10.953125 -18.40625 C 12.765625 -18.40625 14.40625 -18 15.875 -17.1875 C 17.351562 -16.382812 18.507812 -15.273438 19.34375 -13.859375 C 20.175781 -12.453125 20.59375 -10.863281 20.59375 -9.09375 C 20.59375 -7.332031 20.175781 -5.742188 19.34375 -4.328125 C 18.507812 -2.910156 17.351562 -1.800781 15.875 -1 C 14.40625 -0.195312 12.765625 0.203125 10.953125 0.203125 Z M 10.953125 -2.109375 C 12.285156 -2.109375 13.484375 -2.410156 14.546875 -3.015625 C 15.609375 -3.617188 16.445312 -4.453125 17.0625 -5.515625 C 17.675781 -6.585938 17.984375 -7.78125 17.984375 -9.09375 C 17.984375 -10.414062 17.675781 -11.609375 17.0625 -12.671875 C 16.445312 -13.742188 15.609375 -14.582031 14.546875 -15.1875 C 13.484375 -15.789062 12.285156 -16.09375 10.953125 -16.09375 C 9.609375 -16.09375 8.394531 -15.789062 7.3125 -15.1875 C 6.226562 -14.582031 5.378906 -13.742188 4.765625 -12.671875 C 4.148438 -11.609375 3.84375 -10.414062 3.84375 -9.09375 C 3.84375 -7.78125 4.148438 -6.585938 4.765625 -5.515625 C 5.378906 -4.453125 6.226562 -3.617188 7.3125 -3.015625 C 8.394531 -2.410156 9.609375 -2.109375 10.953125 -2.109375 Z M 10.953125 -2.109375 "/></g></g></g><g fill="#f8d8e8" fill-opacity="1"><g transform="translate(280.745622, 231.584282)"><g><path d="M 18.53125 -18.203125 L 10.5625 0 L 7.984375 0 L -0.03125 -18.203125 L 2.78125 -18.203125 L 9.328125 -3.25 L 15.9375 -18.203125 Z M 18.53125 -18.203125 "/></g></g></g><g fill="#f8d8e8" fill-opacity="1"><g transform="translate(299.25209, 231.584282)"><g><path d="M 14.328125 -4.546875 L 4.65625 -4.546875 L 2.65625 0 L -0.03125 0 L 8.21875 -18.203125 L 10.796875 -18.203125 L 19.0625 0 L 16.328125 0 Z M 13.421875 -6.625 L 9.484375 -15.546875 L 5.5625 -6.625 Z M 11.09375 -23.0625 L 14.265625 -23.0625 L 9.90625 -19.6875 L 7.5625 -19.6875 Z M 11.09375 -23.0625 "/></g></g></g></svg>